<svg xmlns="http://www.w3.org/2000/svg">

  <symbol id="icon-radio" viewBox="0 0 64 64">
    <rect x="6" y="16" width="52" height="32" rx="4" fill="currentColor"/>
    <rect x="10" y="20" width="44" height="24" fill="#ffffff"/>
  </symbol>

  <symbol id="icon-clock" viewBox="0 0 64 64">
    <circle cx="32" cy="32" r="28" fill="currentColor"/>
    <line x1="32" y1="32" x2="32" y2="18" stroke="#ffffff" stroke-width="3"/>
    <line x1="32" y1="32" x2="42" y2="38" stroke="#ffffff" stroke-width="3"/>
  </symbol>

  <symbol id="icon-diagram" viewBox="0 0 64 64">
    <rect x="10" y="34" width="10" height="20" fill="currentColor"/>
    <rect x="26" y="24" width="10" height="30" fill="currentColor"/>
    <rect x="42" y="14" width="10" height="40" fill="currentColor"/>
  </symbol>

  <symbol id="icon-astronaut" viewBox="0 0 64 64">
    <circle cx="32" cy="22" r="10" fill="currentColor"/>
    <rect x="20" y="34" width="24" height="18" rx="4" fill="currentColor"/>
  </symbol>

  <symbol id="icon-instagram" viewBox="0 0 24 24">
    <path fill="currentColor" d="M7 2C4.2 2 2 4.2 2 7v10c0 2.8 
    2.2 5 5 5h10c2.8 0 5-2.2 
    5-5V7c0-2.8-2.2-5-5-5H7zm5 
    4a6 6 0 110 12 6 6 0 010-12zm0 
    2a4 4 0 100 8 4 4 0 000-8zm5.5-.9a1.1 
    1.1 0 11-2.2 0 1.1 1.1 0 012.2 0z"/>
  </symbol>

  <symbol id="icon-twitter" viewBox="0 0 24 24">
    <path fill="currentColor" d="M22 5.9c-.7.3-1.5.5-2.3.6.8-.5 
    1.4-1.3 1.7-2.2-.8.5-1.7.8-2.6 
    1A4.1 4.1 0 0016 4c-2.3 0-4.1 
    1.9-4.1 4.2 0 .3 0 .6.1.9-3.4-.2-6.4-1.8-8.4-4.3-.4.6-.6 
    1.3-.6 2 0 1.4.7 2.6 1.8 3.3-.6 0-1.2-.2-1.7-.5 
    0 2 1.4 3.7 3.3 4.1-.3.1-.7.1-1 .1-.3 
    0-.5 0-.8-.1.5 1.7 2.1 2.9 3.9 
    3A8.3 8.3 0 012 19.5 11.7 11.7 0 008.3 21c7.5 
    0 11.6-6.3 11.6-11.7v-.5c.8-.6 1.5-1.3 2.1-2z"/>
  </symbol>

  <symbol id="icon-facebook" viewBox="0 0 24 24">
    <path fill="currentColor" d="M13 22v-8h3l1-4h-4V8c0-1.2.3-2 
    2-2h2V2.1C16.7 2 15.6 2 14.5 
    2 11.8 2 10 3.7 10 7v3H7v4h3v8h3z"/>
  </symbol>

  <symbol id="icon-linkedin" viewBox="0 0 24 24">
    <path fill="currentColor" d="M4.98 3.5C4.98 4.9 3.9 6 2.5 
    6S0 4.9 0 3.5 1.08 1 2.5 
    1 4.98 2.1 4.98 3.5zM0 
    8h5v14H0V8zm7.5 0h4.7v2h.1c.7-1.3 
    2.4-2.7 5-2.7 5.3 0 6.2 3.5 6.2 
    8V22h-5v-7.5c0-1.8 0-4-2.5-4s-2.9 
    2-2.9 3.9V22h-5V8z"/> 
  </symbol>

</svg>